#N canvas 1040 142 468 428 10;
#N canvas 848 433 625 588 counter 1;
#X obj 272 240 inlet;
#X obj 349 240 inlet;
#X obj 196 123 metro;
#X floatatom 196 213 5 0 0 0 - - -;
#X floatatom 196 295 5 0 0 0 - - -;
#X msg 293 128 0;
#X floatatom 349 294 5 0 0 0 - - -;
#X obj 349 313 s restart;
#X obj 293 28 r restart;
#X obj 120 229 / 1000;
#X floatatom 120 255 5 0 0 0 - - -;
#X obj 293 49 hradio 15 1 0 2 empty empty empty 0 -8 0 10 -262144 -1
-1 0;
#X obj 196 260 expr if($f1 >= $f2 \, 0 \, 1) \; if($f1 >= $f3 \, 1
\, 0) \;;
#X obj 323 66 bng 15 250 50 0 empty empty empty 17 7 0 10 -262144 -1
-1;
#X obj 293 87 spigot;
#X obj 323 106 bng 15 250 50 0 empty empty empty 17 7 0 10 -262144
-1 -1;
#X obj 196 145 f;
#X obj 223 162 + 1;
#X msg 223 102 1;
#X obj 196 328 outlet;
#X text 244 328 Volume Outlet;
#X text 269 214 Duration;
#X text 347 214 startTimeNext;
#X obj 196 81 loadbang;
#X connect 0 0 12 1;
#X connect 1 0 12 2;
#X connect 2 0 16 0;
#X connect 3 0 9 0;
#X connect 3 0 12 0;
#X connect 4 0 19 0;
#X connect 5 0 16 1;
#X connect 6 0 7 0;
#X connect 8 0 11 0;
#X connect 9 0 10 0;
#X connect 11 0 13 0;
#X connect 11 0 14 1;
#X connect 12 0 4 0;
#X connect 12 1 6 0;
#X connect 13 0 14 0;
#X connect 14 0 15 0;
#X connect 15 0 5 0;
#X connect 16 0 17 0;
#X connect 16 0 3 0;
#X connect 17 0 16 1;
#X connect 18 0 2 1;
#X connect 23 0 2 0;
#X restore 23 200 pd counter;
#X obj 23 154 r duration1;
#X obj 80 174 r startTimeNext1;
#N canvas 951 256 450 300 audio 1;
#X obj 119 77 inlet;
#X obj 168 50 r frequency1;
#X obj 168 75 osc~;
#X obj 152 118 *~;
#X obj 153 164 dac~;
#X connect 0 0 3 0;
#X connect 1 0 2 0;
#X connect 2 0 3 1;
#X connect 3 0 4 0;
#X connect 3 0 4 1;
#X restore 23 230 pd audio;
#X obj 227 147 r duration1;
#X obj 284 167 r startTimeNext1;
#X floatatom 225 224 5 0 0 0 - - -;
#X floatatom 286 226 5 0 0 0 - - -;
#X connect 0 0 3 0;
#X connect 1 0 0 0;
#X connect 2 0 0 1;
#X connect 4 0 6 0;
#X connect 5 0 7 0;
